<?xml version="1.0" encoding="utf-8"?>
<!-- Generator: Adobe Illustrator 28.4.1, SVG Export Plug-In . SVG Version: 6.00 Build 0)  -->
<svg version="1.2" baseProfile="tiny" id="svg10908" xmlns:svg="http://www.w3.org/2000/svg"
	 xmlns="http://www.w3.org/2000/svg" xmlns:xlink="http://www.w3.org/1999/xlink" x="0px" y="0px" viewBox="0 0 998.1 359.2"
	 overflow="visible" xml:space="preserve">
<g>
	<path id="path5605" fill="#FFFFFF" d="M0.3,327l10.2-1c0.6,3.4,1.9,6,3.7,7.6c1.9,1.6,4.4,2.4,7.6,2.4c3.4,0,5.9-0.7,7.7-2.1
		c1.7-1.4,2.6-3.1,2.6-5c0-1.2-0.4-2.3-1.1-3.1c-0.7-0.9-2-1.6-3.8-2.3c-1.2-0.4-4-1.2-8.4-2.3c-5.6-1.4-9.6-3.1-11.9-5.2
		c-3.2-2.9-4.8-6.4-4.8-10.5c0-2.6,0.8-5.1,2.3-7.4s3.7-4.1,6.5-5.3c2.8-1.2,6.2-1.8,10.3-1.8c6.5,0,11.5,1.4,14.8,4.3
		s5,6.7,5.2,11.5l-10.5,0.5c-0.5-2.7-1.4-4.6-2.9-5.8c-1.5-1.2-3.7-1.8-6.7-1.8c-3.1,0-5.4,0.6-7.2,1.9c-1.1,0.8-1.7,1.9-1.7,3.2
		c0,1.2,0.5,2.3,1.6,3.2c1.3,1.1,4.6,2.3,9.7,3.5s8.9,2.5,11.4,3.8s4.4,3.1,5.8,5.3c1.4,2.2,2.1,5,2.1,8.3c0,3-0.8,5.8-2.5,8.4
		s-4,4.5-7,5.8S26.5,345,22,345c-6.6,0-11.6-1.5-15.2-4.6S1,332.8,0.3,327"/>
	<path id="path5607" fill="#FFFFFF" d="M53.6,291.8h10v9.2h-10V291.8z M53.6,306.2h10V344h-10V306.2z"/>
	<path id="path5611" fill="#FFFFFF" d="M110.4,343.9h-10v-19.3c0-4.1-0.2-6.7-0.6-7.9c-0.4-1.2-1.1-2.1-2.1-2.8c-1-0.7-2.1-1-3.5-1
		c-1.7,0-3.3,0.5-4.7,1.4c-1.4,0.9-2.3,2.2-2.8,3.8c-0.5,1.6-0.8,4.5-0.8,8.7v17.1H76v-37.8h9.3v5.5c3.3-4.3,7.4-6.4,12.4-6.4
		c2.2,0,4.2,0.4,6,1.2c1.8,0.8,3.2,1.8,4.1,3s1.6,2.6,2,4.2s0.6,3.8,0.6,6.7V343.9z"/>
	<path id="path5615" fill="#FFFFFF" d="M121.8,346.4l11.4,1.4c0.2,1.3,0.6,2.2,1.3,2.7c0.9,0.7,2.4,1.1,4.5,1.1
		c2.6,0,4.6-0.4,5.9-1.2c0.9-0.5,1.5-1.4,2-2.5c0.3-0.8,0.5-2.4,0.5-4.6v-5.5c-3,4.1-6.8,6.1-11.3,6.1c-5.1,0-9.1-2.1-12.1-6.4
		c-2.3-3.4-3.5-7.6-3.5-12.7c0-6.3,1.5-11.2,4.6-14.5c3-3.3,6.8-5,11.4-5c4.7,0,8.5,2,11.6,6.1v-5.3h9.4V340c0,4.5-0.4,7.8-1.1,10
		c-0.7,2.2-1.8,3.9-3.1,5.2c-1.3,1.3-3.1,2.2-5.3,2.9c-2.2,0.7-5,1.1-8.4,1.1c-6.4,0-10.9-1.1-13.6-3.3c-2.7-2.2-4-5-4-8.3
		L121.8,346.4z M130.7,324.3c0,4,0.8,6.9,2.3,8.8s3.5,2.8,5.7,2.8c2.4,0,4.5-1,6.2-2.9s2.5-4.7,2.5-8.5c0-3.9-0.8-6.8-2.4-8.7
		c-1.6-1.9-3.7-2.8-6.1-2.8c-2.4,0-4.4,0.9-5.9,2.8C131.5,317.6,130.7,320.5,130.7,324.3"/>
	<path id="path5617" fill="#FFFFFF" d="M169.4,291.8h10v52.1h-10V291.8z"/>
	<path id="path5621" fill="#FFFFFF" d="M213.6,331.9l10,1.7c-1.3,3.6-3.3,6.4-6.1,8.3s-6.2,2.9-10.4,2.9c-6.6,0-11.4-2.1-14.6-6.4
		c-2.5-3.4-3.7-7.8-3.7-13c0-6.3,1.6-11.2,4.9-14.7c3.3-3.5,7.4-5.3,12.4-5.3c5.6,0,10.1,1.9,13.3,5.6s4.8,9.4,4.7,17h-25
		c0.1,3,0.9,5.3,2.4,6.9s3.5,2.5,5.8,2.5c1.6,0,2.9-0.4,3.9-1.3C212.3,335.2,213.1,333.8,213.6,331.9 M214.2,321.8
		c-0.1-2.9-0.8-5.1-2.2-6.6s-3.2-2.3-5.2-2.3c-2.2,0-4,0.8-5.4,2.4s-2.1,3.7-2.1,6.5H214.2z"/>
	<path id="path5625" fill="#FFFFFF" d="M256.9,343.9v-52.1h38.6v8.8h-28.1v11.6h26.2v8.8h-26.2v14.2h29.1v8.8L256.9,343.9
		L256.9,343.9z"/>
	<path id="path5629" fill="#FFFFFF" d="M332.5,343.9v-5.6c-1.4,2-3.2,3.6-5.4,4.8c-2.2,1.2-4.6,1.7-7.1,1.7s-4.8-0.6-6.8-1.7
		s-3.5-2.7-4.4-4.7s-1.4-4.8-1.4-8.4v-23.9h10v17.4c0,5.3,0.2,8.6,0.6,9.8c0.4,1.2,1,2.1,2,2.8c1,0.7,2.2,1,3.7,1
		c1.7,0,3.2-0.5,4.6-1.4s2.3-2.1,2.8-3.5s0.7-4.8,0.7-10.2v-15.9h10v37.8L332.5,343.9L332.5,343.9z"/>
	<path id="path5633" fill="#FFFFFF" d="M363.8,343.9h-10v-37.8h9.3v5.4c1.6-2.5,3-4.2,4.3-5s2.7-1.2,4.3-1.2c2.3,0,4.5,0.6,6.6,1.9
		l-3.1,8.7c-1.7-1.1-3.2-1.6-4.7-1.6c-1.4,0-2.6,0.4-3.6,1.2c-1,0.8-1.7,2.2-2.3,4.2c-0.6,2-0.8,6.2-0.8,12.6L363.8,343.9
		L363.8,343.9z"/>
	<path id="path5637" fill="#FFFFFF" d="M382.5,324.5c0-3.3,0.8-6.5,2.5-9.6c1.6-3.1,3.9-5.5,6.9-7.1s6.3-2.5,10-2.5
		c5.7,0,10.4,1.9,14,5.6s5.5,8.4,5.5,14.1s-1.8,10.4-5.5,14.2c-3.7,3.8-8.3,5.6-13.9,5.6c-3.5,0-6.8-0.8-9.9-2.3
		c-3.1-1.6-5.5-3.9-7.2-6.9C383.3,332.5,382.5,328.9,382.5,324.5 M392.7,325c0,3.7,0.9,6.6,2.7,8.6c1.8,2,4,3,6.6,3s4.8-1,6.6-3
		c1.8-2,2.6-4.9,2.6-8.7c0-3.7-0.9-6.5-2.6-8.5c-1.8-2-4-3-6.6-3s-4.8,1-6.6,3S392.7,321.3,392.7,325"/>
	<path id="path5641" fill="#FFFFFF" d="M453.9,343.9v-52.1h16.9c6.4,0,10.6,0.3,12.5,0.8c3,0.8,5.5,2.5,7.5,5.1s3,6,3,10.1
		c0,3.2-0.6,5.9-1.7,8.1c-1.2,2.2-2.6,3.9-4.4,5.1s-3.6,2.1-5.5,2.5c-2.5,0.5-6.1,0.7-10.9,0.7h-6.9v19.7L453.9,343.9L453.9,343.9z
		 M464.4,300.6v14.8h5.8c4.1,0,6.9-0.3,8.3-0.8s2.5-1.4,3.3-2.6s1.2-2.5,1.2-4.1c0-1.9-0.6-3.5-1.7-4.7s-2.5-2-4.2-2.3
		c-1.3-0.2-3.8-0.4-7.6-0.4h-5.1V300.6z"/>
	<path id="path5645" fill="#FFFFFF" d="M512,317.7l-9.1-1.6c1-3.6,2.8-6.4,5.3-8.1c2.5-1.8,6.2-2.6,11.1-2.6c4.4,0,7.8,0.5,9.9,1.6
		c2.2,1.1,3.7,2.4,4.6,4c0.9,1.6,1.3,4.6,1.3,8.9l-0.1,11.7c0,3.3,0.2,5.8,0.5,7.3c0.3,1.6,0.9,3.3,1.8,5.1h-9.9
		c-0.3-0.7-0.6-1.6-1-2.9c-0.2-0.6-0.3-1-0.4-1.2c-1.7,1.7-3.5,2.9-5.5,3.7c-1.9,0.8-4,1.2-6.2,1.2c-3.9,0-6.9-1.1-9.2-3.2
		s-3.4-4.8-3.4-8c0-2.1,0.5-4,1.5-5.7s2.4-2.9,4.3-3.8c1.8-0.9,4.5-1.7,7.9-2.3c4.7-0.9,7.9-1.7,9.7-2.5v-1c0-1.9-0.5-3.3-1.4-4.1
		c-0.9-0.8-2.7-1.2-5.4-1.2c-1.8,0-3.2,0.4-4.2,1.1C513.5,314.7,512.7,315.9,512,317.7 M525.4,325.8c-1.3,0.4-3.3,0.9-6.1,1.5
		s-4.6,1.2-5.4,1.7c-1.3,0.9-2,2.1-2,3.5s0.5,2.6,1.6,3.6c1,1,2.4,1.5,4,1.5c1.8,0,3.5-0.6,5.1-1.8c1.2-0.9,2-2,2.4-3.3
		c0.3-0.9,0.4-2.5,0.4-4.9V325.8z"/>
	<path id="path5649" fill="#FFFFFF" d="M542.5,306.2h10.6l9,26.8l8.8-26.8h10.3L568,342.5l-2.4,6.6c-0.9,2.2-1.7,3.9-2.5,5.1
		s-1.7,2.1-2.7,2.8c-1,0.7-2.3,1.3-3.8,1.7s-3.2,0.6-5.1,0.6c-1.9,0-3.8-0.2-5.6-0.6l-0.9-7.8c1.6,0.3,3,0.5,4.2,0.5
		c2.3,0,4-0.7,5.1-2c1.1-1.4,2-3.1,2.6-5.2L542.5,306.2z"/>
	<path id="path5653" fill="#FFFFFF" d="M589.2,306.2h9.2v5.2c3.3-4,7.2-6,11.8-6c2.4,0,4.5,0.5,6.3,1.5s3.2,2.5,4.4,4.5
		c1.7-2,3.4-3.5,5.4-4.5c1.9-1,4-1.5,6.1-1.5c2.8,0,5.1,0.6,7,1.7s3.4,2.8,4.3,5c0.7,1.6,1,4.2,1,7.8V344h-10v-21.6
		c0-3.7-0.3-6.2-1-7.3c-0.9-1.4-2.4-2.1-4.3-2.1c-1.4,0-2.7,0.4-3.9,1.3s-2.1,2.1-2.7,3.7c-0.6,1.6-0.8,4.2-0.8,7.8v18.1h-10v-20.7
		c0-3.7-0.2-6-0.5-7.1c-0.4-1.1-0.9-1.9-1.6-2.4s-1.8-0.8-3-0.8c-1.5,0-2.9,0.4-4.2,1.2c-1.2,0.8-2.1,2-2.6,3.6s-0.8,4.2-0.8,7.8
		v18.3h-10v-37.6H589.2z"/>
	<path id="path5657" fill="#FFFFFF" d="M678.7,331.9l10,1.7c-1.3,3.6-3.3,6.4-6.1,8.3s-6.2,2.9-10.4,2.9c-6.6,0-11.4-2.1-14.6-6.4
		c-2.5-3.4-3.7-7.8-3.7-13c0-6.3,1.6-11.2,4.9-14.7c3.3-3.5,7.4-5.3,12.4-5.3c5.6,0,10.1,1.9,13.3,5.6s4.8,9.4,4.7,17h-25
		c0.1,3,0.9,5.3,2.4,6.9s3.5,2.5,5.8,2.5c1.6,0,2.9-0.4,3.9-1.3C677.4,335.2,678.2,333.8,678.7,331.9 M679.3,321.8
		c-0.1-2.9-0.8-5.1-2.2-6.6s-3.2-2.3-5.2-2.3c-2.2,0-4,0.8-5.4,2.4s-2.1,3.7-2.1,6.5H679.3z"/>
	<path id="path5661" fill="#FFFFFF" d="M733.9,343.9h-10v-19.3c0-4.1-0.2-6.7-0.6-7.9c-0.4-1.2-1.1-2.1-2.1-2.8c-1-0.7-2.1-1-3.5-1
		c-1.7,0-3.3,0.5-4.7,1.4s-2.3,2.2-2.8,3.8c-0.5,1.6-0.8,4.5-0.8,8.7v17.1h-10v-37.8h9.3v5.5c3.3-4.3,7.4-6.4,12.4-6.4
		c2.2,0,4.2,0.4,6,1.2c1.8,0.8,3.2,1.8,4.1,3c0.9,1.2,1.6,2.6,2,4.2s0.6,3.8,0.6,6.7L733.9,343.9L733.9,343.9z"/>
	<path id="path5665" fill="#FFFFFF" d="M763.5,306.2v8h-6.8v15.2c0,3.1,0.1,4.9,0.2,5.4l0.9,1.3c0.5,0.3,1,0.5,1.7,0.5
		c0.9,0,2.3-0.3,4-1l0.9,7.7c-2.3,1-4.9,1.5-7.9,1.5c-1.8,0-3.4-0.3-4.9-0.9c-1.4-0.6-2.5-1.4-3.2-2.4s-1.1-2.3-1.4-3.9
		c-0.2-1.2-0.3-3.5-0.3-7v-16.5H742v-8h4.6v-7.5l10-5.8v13.3L763.5,306.2L763.5,306.2z"/>
	<path id="path5669" fill="#FFFFFF" d="M769.1,333.2l10-1.5c0.4,1.9,1.3,3.4,2.6,4.4s3.1,1.5,5.5,1.5c2.6,0,4.5-0.5,5.8-1.4
		c0.9-0.7,1.3-1.6,1.3-2.7c0-0.8-0.2-1.4-0.7-1.9s-1.6-0.9-3.3-1.3c-8.1-1.8-13.2-3.4-15.3-4.9c-3-2-4.5-4.9-4.5-8.5
		c0-3.3,1.3-6,3.9-8.2c2.6-2.2,6.6-3.3,12-3.3c5.2,0,9,0.8,11.5,2.5s4.2,4.2,5.2,7.5l-9.4,1.7c-0.4-1.5-1.2-2.6-2.3-3.4
		s-2.7-1.2-4.8-1.2c-2.6,0-4.5,0.4-5.6,1.1c-0.8,0.5-1.1,1.2-1.1,2c0,0.7,0.3,1.3,1,1.8c0.9,0.7,4,1.6,9.3,2.8
		c5.3,1.2,9,2.7,11.1,4.4c2.1,1.8,3.1,4.3,3.1,7.4c0,3.5-1.4,6.4-4.3,8.9c-2.9,2.5-7.2,3.7-12.8,3.7c-5.1,0-9.2-1-12.2-3.1
		C772,339.6,770,336.7,769.1,333.2"/>
	<path id="path5673" fill="#FFFFFF" d="M882,343.9h-11.4l-4.5-11.8h-20.8l-4.3,11.8h-11.2l20.3-52.1h11.1L882,343.9z M862.7,323.3
		l-7.2-19.3l-7,19.3H862.7z"/>
	<path id="path5677" fill="#FFFFFF" d="M899.3,343.9h-10v-37.8h9.3v5.4c1.6-2.5,3-4.2,4.3-5s2.7-1.2,4.3-1.2c2.3,0,4.5,0.6,6.6,1.9
		l-3.1,8.7c-1.7-1.1-3.2-1.6-4.7-1.6c-1.4,0-2.6,0.4-3.6,1.2c-1,0.8-1.7,2.2-2.3,4.2s-0.8,6.2-0.8,12.6V343.9z"/>
	<path id="path5681" fill="#FFFFFF" d="M942.1,331.9l10,1.7c-1.3,3.6-3.3,6.4-6.1,8.3s-6.2,2.9-10.4,2.9c-6.6,0-11.4-2.1-14.6-6.4
		c-2.5-3.4-3.7-7.8-3.7-13c0-6.3,1.6-11.2,4.9-14.7c3.3-3.5,7.4-5.3,12.4-5.3c5.6,0,10.1,1.9,13.3,5.6s4.8,9.4,4.7,17h-25
		c0.1,3,0.9,5.3,2.4,6.9s3.5,2.5,5.8,2.5c1.6,0,2.9-0.4,3.9-1.3C940.8,335.2,941.6,333.8,942.1,331.9 M942.7,321.8
		c-0.1-2.9-0.8-5.1-2.2-6.6s-3.2-2.3-5.2-2.3c-2.2,0-4,0.8-5.4,2.4s-2.1,3.7-2.1,6.5H942.7z"/>
	<path id="path5685" fill="#FFFFFF" d="M970.4,317.7l-9.1-1.6c1-3.6,2.8-6.4,5.3-8.1c2.5-1.8,6.2-2.6,11.1-2.6c4.4,0,7.8,0.5,10,1.6
		s3.7,2.4,4.6,4s1.3,4.6,1.3,8.9l-0.1,11.7c0,3.3,0.2,5.8,0.5,7.3c0.3,1.6,0.9,3.3,1.8,5.1h-9.9c-0.3-0.7-0.6-1.6-1-2.9
		c-0.2-0.6-0.3-1-0.4-1.2c-1.7,1.7-3.5,2.9-5.5,3.7c-1.9,0.8-4,1.2-6.2,1.2c-3.9,0-6.9-1.1-9.2-3.2c-2.2-2.1-3.4-4.8-3.4-8
		c0-2.1,0.5-4,1.5-5.7s2.4-2.9,4.3-3.8c1.8-0.9,4.5-1.7,7.9-2.3c4.7-0.9,7.9-1.7,9.7-2.5v-1c0-1.9-0.5-3.3-1.4-4.1
		c-0.9-0.8-2.7-1.2-5.4-1.2c-1.8,0-3.2,0.4-4.2,1.1C971.8,314.7,971,315.9,970.4,317.7 M983.8,325.8c-1.3,0.4-3.3,0.9-6.1,1.5
		s-4.6,1.2-5.4,1.7c-1.3,0.9-2,2.1-2,3.5s0.5,2.6,1.6,3.6c1,1,2.4,1.5,4,1.5c1.8,0,3.5-0.6,5.1-1.8c1.2-0.9,2-2,2.4-3.3
		c0.3-0.9,0.4-2.5,0.4-4.9V325.8z"/>
	<path id="path5689" fill="#FFFFFF" d="M221.8,87h-68.3c0-11.2-1.3-18.7-3.9-22.6c-4.1-5.7-15.3-8.5-33.6-8.5
		c-17.8,0-29.7,1.6-35.4,4.9c-5.8,3.3-8.7,10.4-8.7,21.4c0,9.9,2.6,16.5,7.7,19.6c3.7,2.2,8.5,3.5,14.6,3.9l13.8,1
		c29.5,2,48,3.3,55.3,4.1c23.3,2.4,40.3,8.6,50.8,18.6c8.3,7.9,13.2,18.1,14.8,30.8c0.9,7.6,1.4,16.2,1.4,25.7c0,22-2.1,38-6.3,48.2
		c-7.6,18.7-24.7,30.5-51.3,35.5c-11.1,2.1-28.2,3.1-51.1,3.1c-38.2,0-64.9-2.3-80-6.9c-18.5-5.6-30.7-17-36.5-34.1
		C1.6,222.3,0,206.5,0,184.3h68.3c0,2.5,0,4.4,0,5.7c0,11.8,3.4,19.5,10.2,22.9c4.7,2.3,10.4,3.6,17.1,3.7h25.1
		c12.8,0,21-0.7,24.5-2c6.3-2.5,10.4-6.4,12.4-11.9c1-3.4,1.6-7.8,1.6-13.1c0-12-4.4-19.3-13.1-21.9c-3.3-1-18.5-2.5-45.7-4.3
		c-21.8-1.6-37-3.1-45.5-4.5c-22.4-4.2-37.3-12.8-44.7-25.8C3.6,121.8,0.3,105,0.3,82.5c0-17.1,1.8-30.8,5.3-41.1
		s9.2-18.2,17.1-23.5C34.2,9.7,49,4.8,66.9,3.4c14.9-1.3,31.5-2,49.7-2c28.7,0,49.1,1.6,61.3,4.9c29.7,8,44.6,30.4,44.6,67.1
		C222.4,76.5,222.2,81,221.8,87"/>
	<path id="path5693" fill="#FFFFFF" d="M522.1,272.8V0h107h16.8h13c18.8,0,33.1,1.5,42.9,4.6c22.5,7,37.6,21.5,45.3,43.3
		c4,11.4,6,28.7,6,51.7c0,27.7-2.2,47.5-6.6,59.7c-8.8,23.9-26.8,37.7-54.1,41.3c-3.2,0.5-16.9,1-40.9,1.4l-12.2,0.4h-43.8v70.4
		H522.1z M595.5,139.1h45.8c14.5-0.5,23.3-1.6,26.5-3.4c4.3-2.4,7.3-7.2,8.7-14.3c0.9-4.8,1.4-11.9,1.4-21.3
		c0-11.5-0.9-20.1-2.8-25.7c-2.6-7.8-9-12.6-19-14.3c-2-0.3-6.7-0.4-14.2-0.4h-46.4V139.1z"/>
	<path id="path5697" fill="#FFFFFF" d="M909.8,225.6h-98.2l-13.2,47.1h-76L804.4,0h110.7l83,272.8h-74.4L909.8,225.6z M895.2,172.5
		L860.8,54.2l-33.4,118.2h67.8V172.5z"/>
	<path id="path5701" fill="#FFBE00" d="M420.8,38.4c30.3,0,57.3,13.9,75.1,35.8l15.8-33.9C487,16.9,453.3,2.5,416.1,2.5
		c-57.8,0-107.3,34.9-127.6,84.4h-30.9L239.4,126h39.7c-0.3,3.6-0.5,7.2-0.5,10.9c0,4.5,0.2,8.9,0.7,13.3h-19.9l-18.2,39.1h48.3
		c20.9,48.2,69.7,82,126.7,82c28.7,0,55.3-8.6,77.4-23.3v-48c-17.8,20.2-43.7,33-72.7,33c-33.8,0-63.6-17.4-80.9-43.9h101l18.2-39.1
		H324.9c-0.7-4.7-1.1-9.5-1.1-14.4c0-3.3,0.2-6.6,0.5-9.8h146.1l18.2-39.1H337C353.8,57.9,385,38.4,420.8,38.4"/>
	<path id="path5705" fill="#FFFFFF" d="M420.8,39.5c28.9,0,55.9,12.9,74.2,35.4l1.2,1.5l0.8-1.7l15.8-33.9l0.4-0.8l-0.6-0.6
		c-26-24.6-60.2-38.1-96.4-38.1c-28.2,0-55.4,8.2-78.5,23.9c-22.6,15.2-40,36.4-50.2,61.3l1.1-0.7h-30.9h-0.8l-0.3,0.7l-18.2,39.1
		l-0.8,1.7h1.8h39.7l-1.2-1.3c-0.3,4.1-0.5,7.7-0.5,11c0,4.4,0.2,8.9,0.7,13.4l1.2-1.3h-19.9h-0.7l-0.3,0.7L240,188.7l-0.8,1.7h1.8
		h48.3l-1.1-0.7C310,240,360.1,272.4,416,272.4c28,0,55-8.1,78-23.5l0.5-0.3V248v-48v-3.1l-2,2.3c-18.2,20.7-44.4,32.6-71.8,32.6
		c-32.3,0-62.2-16.2-80-43.3l-1,1.8H441h0.8l0.3-0.7l18.2-39.1l0.8-1.7h-1.8H324.9l1.2,1c-0.7-4.7-1.1-9.5-1.1-14.2
		c0-3.2,0.2-6.5,0.5-9.7l-1.2,1.1h146.1h0.8l0.3-0.7l18.2-39.1l0.8-1.7h-1.9H337l1,1.8C355.1,57.9,386.8,39.5,420.8,39.5 M337,88
		h151.7l-1.1-1.7l-18.2,39.1l1.1-0.7H324.4h-1.1l-0.1,1.1c-0.3,3.3-0.5,6.6-0.5,9.9c0,4.8,0.4,9.7,1.1,14.6l0.2,1h1h134.3l-1.1-1.7
		L440,188.7l1.1-0.7H339.8h-2.2l1.2,1.8c18.2,27.8,48.9,44.4,81.9,44.4c28.1,0,54.9-12.2,73.6-33.4l-2.1-0.8v47.9l0.5-1
		C470,262,443.5,270,416,270c-54.9,0-104.2-31.9-125.6-81.3l-0.3-0.7h-0.8H241l1.1,1.7l18.2-39.1l-1.1,0.7h19.9h1.3l-0.1-1.3
		c-0.4-4.4-0.7-8.9-0.7-13.2c0-3.3,0.2-6.9,0.5-10.9l0.1-1.3h-1.3h-39.7l1.1,1.7l18.2-39.1l-1.1,0.7h30.9h0.8l0.3-0.7
		c10-24.4,27.1-45.2,49.3-60.2c22.8-15.3,49.5-23.4,77.2-23.4c35.5,0,69.2,13.3,94.8,37.5l-0.3-1.4l-15.8,33.9l2-0.2
		c-18.7-23-46.4-36.2-76-36.2c-34.8,0-67.2,18.8-84.8,49l-1,1.8L337,88L337,88z"/>
</g>
</svg>
