<?xml version="1.0" encoding="utf-8"?>
<!-- Generator: Adobe Illustrator 28.4.1, SVG Export Plug-In . SVG Version: 6.00 Build 0)  -->
<svg version="1.2" baseProfile="tiny" id="Layer_1" xmlns="http://www.w3.org/2000/svg" xmlns:xlink="http://www.w3.org/1999/xlink"
	 x="0px" y="0px" viewBox="0 0 1000 324.7" overflow="visible" xml:space="preserve">
<path fill="#FFFFFF" d="M651.2,0.5c-70.9,0-134.3,36.8-134.3,104.7c0,77.9,112.4,83.3,112.4,122.4c0,16.5-18.9,31.2-51.1,31.2
	c-45.8,0-80-20.6-80-20.6l-14.6,68.6c0,0,39.4,17.4,91.7,17.4c77.5,0,138.6-38.6,138.6-107.7c0-82.3-112.9-87.5-112.9-123.9
	c0-12.9,15.5-27.1,47.7-27.1c36.3,0,65.9,15,65.9,15l14.3-66.2C728.8,14.4,696.6,0.5,651.2,0.5L651.2,0.5L651.2,0.5z M2.2,5.5
	l-1.7,10c0,0,29.8,5.5,56.7,16.4c34.6,12.5,37.1,19.8,42.9,42.3L163.6,319h85.1L379.9,5.5H295l-84.3,213.2L176.3,38
	c-3.1-20.7-19.1-32.5-38.7-32.5L2.2,5.5L2.2,5.5z M414.1,5.5L347.5,319h81L494.9,5.5H414.1z M865.8,5.5c-19.5,0-29.9,10.5-37.5,28.7
	L709.7,319h84.9l16.4-47.5h103.5l10,47.5h75L934.1,5.5H865.8z M876.9,90.2l25.2,117.7h-67.5L876.9,90.2L876.9,90.2L876.9,90.2z"/>
</svg>
