<?xml version="1.0" encoding="utf-8"?>
<!-- Generator: Adobe Illustrator 28.4.1, SVG Export Plug-In . SVG Version: 6.00 Build 0)  -->
<svg version="1.2" baseProfile="tiny" id="Layer_1" xmlns="http://www.w3.org/2000/svg" xmlns:xlink="http://www.w3.org/1999/xlink"
	 x="0px" y="0px" viewBox="0 0 31.9 32" overflow="visible" xml:space="preserve">
<path fill="#1ABC9C" d="M27.2,32H4.7C2.1,32,0,29.9,0,27.3V4.7C0,2.1,2.1,0,4.7,0h22.5c2.6,0,4.7,2.1,4.7,4.7v22.6
	C31.9,29.9,29.8,32,27.2,32z"/>
<g>
	<path fill="#FFFFFF" d="M24.4,8.1c0.2,0,0.5,0,0.5,0.2c0,0.2-3.1,1.3-4.9,2.6c-1.3,1-3.1,3.1-4.2,5c-0.5,0.9-1.4,1.1-2.3,0.5
		c-0.3-0.2-0.6-0.5-0.8-0.7c-1.6-1.6-3.2-3.3-4.9-4.9c-0.1-0.1-0.2-0.2-0.4-0.4c-0.2-0.2-0.4-0.2-0.7,0c-0.2,0.2-0.2,0.5-0.1,0.7
		c0.1,0.2,0.2,0.3,0.4,0.5c1.8,1.8,3.5,3.6,5.3,5.3c0.7,0.7,1.6,1.2,2.6,1.2c0.3,0,0.5,0.1,0.6,0.5c0.2,0.6,0.2,0.7,0.4,1
		c0.9,1.8,1.8,3.6,2.6,5.3c0.3,0.5,0.2,0.5-0.3,0.5c-3.3,0-6.6,0-9.9,0c-2.2,0-3.8-1.6-3.9-3.8c0-3.2,0-6.5,0-9.7
		c0-2.3,1.6-3.8,3.8-3.8C10.6,8.1,22,8.1,24.4,8.1z"/>
	<path fill="#FFFFFF" d="M27.8,9.3c-0.8,0.9-1.7,1.4-2.7,1.8c-2.5,1-4.6,2.5-6.3,4.6c-0.8,1-1,2-0.4,3.2c0.8,1.6,1.6,3.3,2.5,5
		c0.3-0.7,0.6-1.3,0.9-1.9c0.3-0.6,0.5-1.3,0.8-1.9c0.2-0.6,1.1-1,1.7-0.9c0.3,0.1,0.1,0.2,0,0.4c-0.4,0.8-0.8,1.7-1.1,2.5
		c-0.4,1-0.9,2-1.3,3c-0.1,0.3-0.3,0.4-0.7,0.4c-1.1,0.2-1.5-0.4-2-1.5c-0.6-1.3-1.2-2.3-1.8-3.7c-0.8-1.7-1.1-3-0.3-4.4
		C18.7,13,21,11,24,9.8c1-0.4,2.1-0.8,3-1.4c0.7-0.5,1.3-1,1.8-1.7c0-0.1,0.1-0.2,0.2-0.2s0.2,0,0.2,0.1c0.2,1.1,0.2,2.1-0.1,3.2
		c-0.3,1-0.7,2-1.4,2.8c-0.2,0.3-0.3,0.6-0.4,0.9c-0.3,1.8-1.2,3.3-2.9,4.2c-1.2,0.7-2.6,1.1-3.9,1.4c0,0-0.1,0-0.1,0
		c-0.1,0-0.2-0.1-0.2-0.2c0.4-0.8,1-1.4,1.7-1.8c0.6-0.3,1.1-0.5,1.7-0.8c1-0.5,1.8-1.2,2.2-2.5c-1.5,1.1-3.2,1.4-4.9,2.2
		c-0.1,0-0.2,0-0.1-0.1c0.3-1,0.9-1.8,1.8-2.2c0.8-0.4,1.6-0.6,2.4-1c1.3-0.7,2.4-1.7,2.8-3.2c0,0,0-0.1,0-0.2
		C27.9,9.4,27.8,9.4,27.8,9.3z"/>
</g>
</svg>
