<?xml version="1.0" encoding="utf-8"?>
<!-- Generator: Adobe Illustrator 28.4.1, SVG Export Plug-In . SVG Version: 6.00 Build 0)  -->
<svg version="1.2" baseProfile="tiny" id="Layer_1" xmlns="http://www.w3.org/2000/svg" xmlns:xlink="http://www.w3.org/1999/xlink"
	 x="0px" y="0px" viewBox="0 0 435.1 85.9" overflow="visible" xml:space="preserve">
<g>
	<path fill="#1ABC9C" d="M96.1,7.5c0.8,0,2.2-0.2,2.2,0.7c0,1.1-13.8,5.9-21.9,11.7c-6,4.3-14.1,14-19.1,22.7c-2.3,4-6.4,5-10.2,2.4
		c-1.4-0.9-2.6-2.1-3.7-3.3c-7.3-7.3-14.6-14.7-21.9-22c-0.6-0.6-1.1-1.1-1.7-1.6c-0.9-0.8-2-1-3-0.2c-1.1,0.8-1.1,2.1-0.5,3.2
		c0.5,0.8,1.1,1.5,1.8,2.2c8,8,15.9,16,23.9,24c3.3,3.3,7,5.6,11.9,5.5c1.5,0,2.2,0.6,2.7,2.3c0.9,2.7,1,3,1.7,4.4
		c3.9,8,7.9,16,11.8,24c1.2,2.4,1.1,2.4-1.5,2.4c-14.8,0-29.7,0-44.5,0c-9.9-0.1-17.3-7.4-17.4-17.2c0-14.6,0-29.2,0-43.8
		C6.7,14.7,13.8,7.6,24,7.6C34.3,7.5,85.3,7.5,96.1,7.5z"/>
	<path fill="#1ABC9C" d="M111.7,12.8c-3.4,4.2-7.7,6.4-12.3,8.2C88,25.4,78.5,32.2,71,41.9c-3.5,4.6-4.4,9-1.7,14.2
		c3.8,7.3,7.4,14.8,11.3,22.6c1.4-3,2.6-5.8,3.9-8.7c1.2-2.8,2.4-5.7,3.6-8.5c1.1-2.5,4.9-4.5,7.5-3.9c1.3,0.3,0.5,1.1,0.2,1.6
		c-1.7,3.7-3.4,7.5-5,11.2c-2,4.5-4,8.9-5.9,13.4c-0.6,1.4-1.5,1.8-3,2c-4.8,0.7-6.6-1.7-8.8-6.8c-2.5-5.8-5.5-10.4-8.2-16.8
		c-3.4-7.8-4.9-13.4-1.2-20c7.1-12.7,17.4-21.7,30.9-27c4.7-1.9,9.4-3.6,13.6-6.5c3.1-2.1,5.9-4.5,8.1-7.5c0.2-0.3,0.4-0.7,0.8-1
		s1-0.1,1.1,0.4c0.9,4.8,0.8,9.6-0.4,14.4c-1.2,4.6-3.1,8.9-6.1,12.7c-1,1.2-1.4,2.5-1.6,4.1c-1.4,8.3-5.4,14.9-12.9,19
		c-5.5,3.1-11.5,4.9-17.5,6.5c-0.2,0.1-0.4,0.1-0.6,0.2c-0.6,0.1-1-0.5-0.8-1.1c1.6-3.5,4.3-6.1,7.8-7.9c2.5-1.2,5-2.3,7.5-3.4
		c4.7-2.2,8.1-5.6,9.8-11.2C96.8,39,88.9,40.3,81.3,44c-0.3,0.2-0.7-0.2-0.6-0.5c1.5-4.7,3.9-8,8-10c3.5-1.7,7.2-2.8,10.6-4.7
		c5.9-3.3,10.8-7.5,12.4-14.4c0.1-0.2,0.1-0.5,0.2-0.7C111.9,13.5,111.8,13.3,111.7,12.8z"/>
	<g>
		<path fill="#1ABC9C" d="M154.4,19c3.4-0.1,6.7,0.6,9.8,1.8c2.7,1.1,5.2,2.7,7.2,4.8c2.3,2.5,3.8,5.5,4.3,8.9c0.1,1,0.2,2,0,3
			c-0.3,1.4-1.1,2.4-2.3,3.1c-1.5,0.8-3,1.2-4.7,1.5c-1,0.2-2,0.4-2.9,0.6c-2.1,0.4-4.1,0.9-6.2,1.3c-3.9,0.9-7.8,1.6-11.4,3.3
			c-2.3,1-4.2,2.5-5.1,4.9c-0.4,1.2-0.5,2.5-0.4,3.7c0.4,3,1.9,5.5,4,7.6c1.6,1.5,3.4,2.6,5.5,3.3c2.4,0.8,4.8,1.1,7.3,1
			c1.5-0.1,3-0.2,4.5-0.6c2.2-0.6,4.3-1.4,6.3-2.6c2-1.2,3.9-2.5,5.7-4.1c1.8-1.7,3.6-3.3,5.3-5.2c1.6-1.7,3.2-3.4,5-4.9
			c2.6-2.2,5.4-4.1,8.5-5.6c3.3-1.6,6.8-2.6,10.2-3.6c2.6-0.8,5.2-1.5,7.6-2.6c1.2-0.6,2.3-1.3,3.2-2.4c0.9-1.1,1.2-2.4,1.1-3.7
			c-0.3-3.6-2-6.6-4.9-8.8c-2.2-1.7-4.7-2.4-7.4-2.2c-3.3,0.3-6.1,1.8-8.4,4.1c-1.8,1.8-2.9,4-3.8,6.3c-0.9,2.2-1.4,4.5-1.8,6.9
			c-0.2,1.8-0.4,3.6-0.3,5.4c0,0.3,0,0.4-0.3,0.6c-1.5,0.9-2.8,2-4.2,3.1c-1.6,1.3-3,2.8-4.5,4.2c-0.2,0.2-0.3,0.6-0.5,0.5
			c-0.2-0.1-0.1-0.5-0.2-0.7c-0.3-1.7-0.5-3.5-0.5-5.3c0-3.7,0.5-7.4,1.8-11c1.3-3.6,3.1-6.8,5.8-9.5c2.2-2.2,4.7-4,7.5-5.2
			c3-1.3,6.1-2,9.3-2.2c2.9-0.2,5.7,0.1,8.5,0.9c3.3,0.9,6.2,2.4,8.7,4.7c2.4,2.1,4,4.7,4.8,7.8c0.4,1.3,0.6,2.6,0.6,3.9
			c0,2.3-1.1,3.8-3.1,4.7c-1.7,0.8-3.6,1.1-5.4,1.5c-1.8,0.4-3.5,0.7-5.3,1.1c-2.7,0.6-5.4,1.2-8,1.8c-2.7,0.6-5.4,1.4-8,2.4
			c-2.5,1-4.9,2.3-7.1,3.8c-2.4,1.7-4.5,3.7-6.5,5.8c-1,1.1-2,2.2-3,3.2c-2,2-4,4.1-6.2,5.9c-2.5,2.2-5.2,4-8.2,5.2
			c-2.5,1-5,1.7-7.7,2.1c-3.6,0.5-7.2,0.2-10.8-0.7c-2.6-0.7-5.1-1.7-7.3-3.2c-3.2-2.1-5.8-4.9-7.8-8.2c-1.8-3-3-6.2-3.6-9.6
			c-0.4-2.2-0.6-4.5-0.5-6.8c0.1-1.8,0.2-3.6,0.6-5.4c0.4-1.7,0.8-3.4,1.5-5.1c0.9-2.2,1.9-4.3,3.4-6.2c3.3-4.2,7.5-7.4,12.7-8.8
			C149.4,19.4,151.9,19,154.4,19z M138.8,44.4c-0.1,0.7,0.1,1.6,0.1,2.6c0.1,1.2,0.2,2.4,0.5,3.6c0,0.1,0,0.3,0.1,0.4
			c0.2,0,0.2-0.2,0.2-0.3c0.5-1.1,1.2-2.2,2.1-3.1c1.6-1.6,3.6-2.8,5.6-3.8c2.7-1.2,5.5-2.1,8.3-3c2.2-0.7,4.3-1.4,6.4-2.4
			c2.6-1.3,4-4,3.3-6.8c-0.3-1.3-0.8-2.6-1.5-3.8c-1.7-2.9-4.1-4.8-7.3-5.7c-2.8-0.7-5.6-0.3-8.1,1c-2.9,1.5-5,3.9-6.5,6.8
			c-1.4,2.7-2.3,5.6-2.7,8.6C139.1,40.4,138.8,42.3,138.8,44.4z"/>
		<path fill="#1ABC9C" d="M194,52.1c-0.6,2.8,0,5.3,1.3,7.7c2.4,4.5,6.2,7.3,11.1,8.3c1.6,0.3,3.1,0.4,4.7,0.3
			c1.8-0.1,3.5-0.4,5.1-1c2-0.7,3.8-1.8,5.4-3.2c2.3-1.9,3.9-4.3,5.3-6.9c0.4-0.8,0.7-0.8,1.4-0.4c0.2,0.1,0.4,0.2,0.6,0.3
			c0.4,0.2,0.5,0.4,0.3,0.8c-0.8,1.7-1.6,3.4-2.6,5c-1.5,2.3-3.2,4.3-5.3,6c-2.3,1.8-4.8,3.2-7.7,4.1c-3.7,1.1-7.5,1.2-11.2,0.7
			c-2.3-0.3-4.5-1-6.7-1.9c-3-1.3-5.7-3.1-7.9-5.5c-1.6-1.6-2.9-3.4-4-5.4c-0.2-0.3-0.1-0.5,0.1-0.7c2.5-2.8,5.2-5.5,8.4-7.5
			C192.9,52.7,193.3,52.3,194,52.1z"/>
	</g>
	<g>
		<path fill="#1ABC9C" d="M353.3,19c3.4-0.1,6.7,0.6,9.8,1.8c2.7,1.1,5.2,2.7,7.2,4.8c2.4,2.5,3.8,5.5,4.3,8.9c0.1,1,0.2,2,0,3
			c-0.3,1.4-1.1,2.4-2.3,3.1c-1.5,0.8-3,1.2-4.7,1.5c-1,0.2-2,0.4-2.9,0.6c-2.1,0.4-4.1,0.9-6.2,1.3c-3.9,0.9-7.8,1.6-11.4,3.3
			c-2.3,1-4.2,2.5-5.1,4.9c-0.4,1.2-0.5,2.5-0.4,3.7c0.4,3,1.9,5.5,4,7.6c1.6,1.5,3.4,2.6,5.5,3.3c2.4,0.8,4.8,1.1,7.3,1
			c1.5-0.1,3-0.2,4.5-0.6c2.2-0.6,4.3-1.4,6.3-2.6c2-1.2,3.9-2.5,5.7-4.1c1.8-1.7,3.6-3.3,5.3-5.2c1.6-1.7,3.2-3.4,5-4.9
			c2.6-2.2,5.4-4.1,8.5-5.6c3.3-1.6,6.8-2.6,10.2-3.6c2.6-0.8,5.2-1.5,7.6-2.6c1.2-0.6,2.3-1.3,3.2-2.4c0.9-1.1,1.2-2.4,1.1-3.7
			c-0.3-3.6-2-6.6-4.9-8.8c-2.2-1.7-4.7-2.4-7.4-2.2c-3.3,0.3-6.1,1.8-8.4,4.1c-1.8,1.8-2.9,4-3.8,6.3c-0.9,2.2-1.4,4.5-1.8,6.9
			c-0.2,1.8-0.4,3.6-0.3,5.4c0,0.3,0,0.4-0.3,0.6c-1.5,0.9-2.8,2-4.2,3.1c-1.6,1.3-3,2.8-4.5,4.2c-0.2,0.2-0.3,0.6-0.5,0.5
			c-0.2-0.1-0.1-0.5-0.2-0.7c-0.3-1.7-0.5-3.5-0.5-5.3c0-3.7,0.5-7.4,1.8-11c1.3-3.6,3.1-6.8,5.8-9.5c2.2-2.2,4.7-4,7.5-5.2
			c3-1.3,6.1-2,9.3-2.2c2.9-0.2,5.7,0.1,8.5,0.9c3.3,0.9,6.2,2.4,8.7,4.7c2.4,2.1,4,4.7,4.8,7.8c0.4,1.3,0.6,2.6,0.6,3.9
			c0,2.3-1.1,3.8-3.1,4.7c-1.7,0.8-3.6,1.1-5.4,1.5c-1.8,0.4-3.5,0.7-5.3,1.1c-2.7,0.6-5.4,1.2-8,1.8c-2.7,0.6-5.4,1.4-8,2.4
			c-2.5,1-4.9,2.3-7.1,3.8c-2.4,1.7-4.5,3.7-6.5,5.8c-1,1.1-2,2.2-3,3.2c-2,2-4,4.1-6.2,5.9c-2.5,2.2-5.2,4-8.2,5.2
			c-2.5,1-5,1.7-7.7,2.1c-3.6,0.5-7.2,0.2-10.8-0.7c-2.6-0.7-5.1-1.7-7.3-3.2c-3.2-2.1-5.8-4.9-7.8-8.2c-1.8-3-3-6.2-3.6-9.6
			c-0.4-2.2-0.6-4.5-0.5-6.8c0.1-1.8,0.2-3.6,0.6-5.4c0.4-1.7,0.8-3.4,1.5-5.1c0.9-2.2,1.9-4.3,3.4-6.2c3.3-4.2,7.5-7.4,12.7-8.8
			C348.3,19.4,350.8,19,353.3,19z M337.7,44.4c-0.1,0.7,0.1,1.6,0.1,2.6c0.1,1.2,0.2,2.4,0.5,3.6c0,0.1,0,0.3,0.1,0.4
			c0.2,0,0.2-0.2,0.2-0.3c0.5-1.1,1.2-2.2,2.1-3.1c1.6-1.6,3.6-2.8,5.6-3.8c2.7-1.2,5.5-2.1,8.3-3c2.2-0.7,4.3-1.4,6.4-2.4
			c2.6-1.3,4-4,3.3-6.8c-0.3-1.3-0.8-2.6-1.5-3.8c-1.7-2.9-4.1-4.8-7.3-5.7c-2.8-0.7-5.6-0.3-8.1,1c-2.9,1.5-5,3.9-6.5,6.8
			c-1.4,2.7-2.3,5.6-2.7,8.6C338,40.4,337.7,42.3,337.7,44.4z"/>
		<path fill="#1ABC9C" d="M392.9,52.1c-0.6,2.8,0,5.3,1.3,7.7c2.4,4.5,6.2,7.3,11.1,8.3c1.6,0.3,3.1,0.4,4.7,0.3
			c1.8-0.1,3.5-0.4,5.1-1c2-0.7,3.8-1.8,5.4-3.2c2.3-1.9,3.9-4.3,5.3-6.9c0.4-0.8,0.7-0.8,1.4-0.4c0.2,0.1,0.4,0.2,0.6,0.3
			c0.4,0.2,0.5,0.4,0.3,0.8c-0.8,1.7-1.6,3.4-2.6,5c-1.5,2.3-3.2,4.3-5.3,6c-2.3,1.8-4.8,3.2-7.7,4.1c-3.7,1.1-7.5,1.2-11.2,0.7
			c-2.3-0.3-4.5-1-6.7-1.9c-3-1.3-5.7-3.1-7.9-5.5c-1.6-1.6-2.9-3.4-4-5.4c-0.2-0.3-0.1-0.5,0.1-0.7c2.5-2.8,5.2-5.5,8.4-7.5
			C391.8,52.7,392.3,52.3,392.9,52.1z"/>
	</g>
	<path fill="#1ABC9C" d="M325.2,28c0-1.4-0.2-2.8-0.6-4.1c-0.4-1.1-0.9-2.2-1.7-3.1c-1.7-1.7-3.8-2.2-6.1-1.7
		c-2.1,0.4-3.7,1.7-4.7,3.6c-0.2,0.5-0.4,1-0.5,1.5c-0.1,0.8,0.3,1.4,1.1,1.5c0.3,0,0.5,0.1,0.8,0.1c1.2,0.1,2.2,0.5,3.1,1.4
		c0.9,1,1.5,2.1,1.9,3.4c0.2,0.8,0.4,1.6,0.6,2.5c0.4,3.9-0.2,5.6-0.6,6.7c-0.5,1.7-6.7,18.3-7.3,19.9c-0.1,0.2-0.2,0.3-0.3,0.4
		c-0.2,0.2-0.2,0.1-0.3-0.1c-0.3-0.6-0.5-1.2-0.7-1.8c-0.3-0.8-8.8-24.9-9.2-26c-0.6-1.8-1.3-3.6-1.5-5.5c-0.1-0.7,0.1-1.4,0.5-2
		c0.5-0.8,1.3-1.3,2.1-1.7c0.5-0.3,1.1-0.7,1.3-1.3c0.3-0.9-0.2-1.9-1.2-1.9c-1.1,0-2.1,0-3.2,0c-2.3,0-4.7,0-7,0c0,0-8.1,0-10.1,0
		c-0.4,0-0.7,0.1-1,0.4c-0.7,0.8-0.3,2.2,0.7,2.6c1.3,0.4,2.4,1,3.3,2.1c0.8,0.9,1.5,2,2,3.1c1,2.2,16.5,41.9,16.5,41.9
		c0.3,0.8,0.5,1.6,0.9,2.3c0.4,0.7,0.9,1.1,1.6,1.2c1.2,0.2,2.4,0.1,3.5,0.1c0.2,0,0.4,0,0.6-0.1c0.8-0.1,1.5-0.4,1.8-1.2
		c0.4-0.7,0.4-0.7,0.7-1.5c0-0.1,0.1-0.3,0.2-0.5c1.2-2.9,12.4-37.9,12.4-37.9c0.1-0.6,0.1-0.6,0.2-1.1
		C325.1,30.2,325.3,29.1,325.2,28z"/>
	<g id="bnKmNp_00000041284006991314885280000017252612392981409707_">
		<g>
			<path fill="#1ABC9C" d="M286.2,65.6c-1.4,0.5-2.6,0.1-3.6-1c-0.9-1.1-1.1-2.4-1.2-3.8c0-2.1-0.1-4.2-0.1-6.3c0,0,0,0,0,0
				c0-2.3,0-15.1-0.1-17.8c-0.2-5.4-1.9-10.3-6.4-13.6c-5.8-4.3-12.1-4.4-18.6-1.8c-3.4,1.4-6.3,3.6-8.7,6.5c-0.3,0.4-0.6,1-1.1,0.8
				c-0.6-0.2-0.3-0.9-0.3-1.4c-0.1-1.5,0-3-0.1-4.6c-0.1-2.4-1.4-3.1-3.4-2c-1.2,0.7-2.5,1.4-3.7,2c-2.4,1.2-4.8,2.2-7.2,3.4
				c-0.7,0.3-1.4,0.7-1.4,1.5c0,0.9,0.8,1.1,1.5,1.4c0.1,0.1,0.3,0.1,0.4,0.2c1.7,0.7,2.7,1.8,3,3.7c0.3,1.9,0.2,3.8,0.2,5.7
				c0,3.7,0,17,0,23.2c0,0.7,0,1.4-0.1,2.1c0,3.4-1.5,5.8-4.9,6.9c-1,0.3-1.3,1-1.1,1.9c0.1,0.9,0.9,1,1.6,1c6.6,0,13.2,0,19.9,0
				c0.7,0,1.3-0.1,1.5-0.9c0.2-0.8,0-1.6-0.8-2c-0.2-0.1-0.4-0.2-0.6-0.2c-2.9-0.9-4.2-3-4.4-5.9c-0.2-2.9-0.1-11.9-0.1-11.9
				s0.1-11.8,0.1-12.1c0.2-5.2,2.1-9.5,6.8-12.3c3.6-2.1,7.3-2.5,11.1-0.6c3.4,1.8,4.9,5,5.5,8.6c0.4,2.6,0.4,20.2,0.4,20.7
				c0,0.6,0,1.2,0,1.6c0,0,0,0,0,0c0,0.4,0,0.8,0,1.2c0,2.7,0.2,5.4,1,8c1,3.2,3,5.5,6.4,6.2c5.8,1.2,9.7-2.1,10.7-6.4
				C288.9,65.7,288.1,65,286.2,65.6z"/>
		</g>
	</g>
</g>
</svg>
